<?xml version="1.0" encoding="utf-8"?>
<!-- Generator: Adobe Illustrator 22.0.1, SVG Export Plug-In . SVG Version: 6.00 Build 0)  -->
<svg version="1.1" xmlns="http://www.w3.org/2000/svg" xmlns:xlink="http://www.w3.org/1999/xlink" x="0px" y="0px"
	 viewBox="0 0 512 512" style="enable-background:new 0 0 512 512;" xml:space="preserve">
<style type="text/css">
	.st0{fill:#FFFFFF;}
	.st1{fill:#FD0B33;}
	.st2{font-family:'MyriadPro-Regular';}
	.st3{font-size:55.081px;}
	.st4{fill:#5A5A5A;}
	.st5{fill:#8E8C8D;}
	.st6{fill:#FFFDFE;}
	.st7{fill:#F91E48;}
</style>
<g id="Layer_1">
</g>
<g id="Layer_2">
	<rect class="st0" width="512" height="512"/>
</g>
<g id="Layer_3">
	<rect x="227" class="st1" width="285" height="512"/>
</g>
<g id="Layer_4">
</g>
<g id="Layer_5">
	<path class="st1" d="M149,137c0-31-25.2-56.2-56.2-56.2S36.6,106,36.6,137s25.2,56.2,56.2,56.2c14.4,0,27.5-5.4,37.4-14.3l-0.3,0.5
		l10.5,4.6l-3.7-12C144.4,162.5,149,150.3,149,137z M92.8,189.2c-28.8,0-52.2-23.4-52.2-52.2S64,84.8,92.8,84.8S145,108.2,145,137
		S121.6,189.2,92.8,189.2z"/>
</g>
<g id="Layer_6">
	<text transform="matrix(0.6769 0 0 1 57.6445 155.064)" class="st1 st2 st3">50 %</text>
</g>
<g id="Layer_7">
	<g>
		<g>
			<path class="st4" d="M79,103.6h6.8v1.7h-4.1v3.1h3.9v1.7h-3.9v5.3H79V103.6z"/>
			<path class="st4" d="M87.3,103.6H90v10.1h4.4l-0.2,1.6h-6.9V103.6z"/>
			<path class="st4" d="M97.9,112.2l-0.6,3.1h-2.7l2.8-11.7h3.8l2.9,11.7h-2.8l-0.7-3.1H97.9z M100.3,110.5c-0.4-2-0.8-3.9-1-5.2
				h-0.1c-0.1,1-0.6,3.5-1,5.2H100.3z"/>
			<path class="st4" d="M107.2,105.3h-2.8v-1.7h8.3v1.7h-2.8v10h-2.7V105.3z"/>
		</g>
	</g>
</g>
<g id="Layer_8">
	<g>
		<g>
			<path class="st5" d="M62.9,170.6l-0.4,3.3h-1.9l2-12.2h2.7l2,12.2h-2l-0.5-3.3H62.9z M64.5,168.8c-0.3-2.1-0.5-4-0.7-5.4h-0.1
				c-0.1,1-0.4,3.6-0.7,5.4H64.5z"/>
			<path class="st5" d="M68.2,161.6H70v10.5h3.1l-0.2,1.7h-4.8V161.6z"/>
			<path class="st5" d="M73.9,161.6h1.9v10.5h3.1l-0.2,1.7h-4.8V161.6z"/>
			<path class="st5" d="M82.1,161.6h2.7c1.9,0,2.9,1,2.9,3.1v0.7c0,2-0.7,3.4-3,3.4h-0.7v5h-1.9V161.6z M83.9,167.3h0.5
				c1.2,0,1.4-0.7,1.4-1.9v-0.6c0-0.9-0.2-1.6-1.2-1.6h-0.7V167.3z"/>
			<path class="st5" d="M88.8,167.6c0-1.6,0-2.2,0-3.2h1.8c0,0.2,0.1,1,0.1,1.5c0.4-1.3,1.2-1.7,2.1-1.7v2.3c-1.1,0-2,0.3-2,2.2v5.1
				h-1.9V167.6z"/>
			<path class="st5" d="M98.9,167.3v3.6c0,2-1,3.1-2.8,3.1c-1.8,0-2.8-1.1-2.8-3.1v-3.7c0-2.1,1.2-3,2.8-3
				C97.9,164.2,98.9,165.3,98.9,167.3z M95.2,167.2v3.8c0,0.8,0.2,1.3,0.9,1.3c0.6,0,0.9-0.5,0.9-1.4v-3.8c0-0.7-0.2-1.3-0.9-1.3
				C95.5,165.9,95.2,166.3,95.2,167.2z"/>
			<path class="st5" d="M105.5,161.1v10.1c0,1.4,0,2.1,0,2.6h-1.8c0-0.2-0.1-0.8-0.1-0.9c-0.3,0.6-0.7,1-1.7,1c-1.7,0-2-1.4-2-3.2
				v-3.7c0-1.6,0.6-2.9,2.2-2.9c0.6,0,1.2,0.2,1.5,0.7v-3.8H105.5z M101.9,167.2v3.7c0,0.9,0.2,1.4,0.9,1.4c0.8,0,0.9-0.7,0.9-1.8
				v-2.9c0-1-0.1-1.7-0.9-1.7C102.1,165.9,101.9,166.4,101.9,167.2z"/>
			<path class="st5" d="M112.6,171.1c0,1.4,0,2.3,0,2.8h-1.8c0-0.2-0.1-0.6-0.1-0.9c-0.3,0.8-1,1-1.8,1c-0.9,0-1.9-0.4-1.9-2.5v-7.2
				h1.9v6.7c0,0.9,0.3,1.3,0.8,1.3c0.6,0,0.9-0.4,0.9-1.6v-6.3h1.9V171.1z"/>
			<path class="st5" d="M119.1,170.7v0.1c0,1.7-0.4,3.2-2.6,3.2c-2.2,0-2.6-1.5-2.6-3.4v-3.3c0-1.5,0.5-3.1,2.7-3.1
				c2.3,0,2.5,1.7,2.5,2.9v0.4h-1.9V167c0-0.7-0.1-1.2-0.7-1.2c-0.6,0-0.7,0.4-0.7,1.2v4.1c0,0.7,0.1,1.3,0.7,1.3
				c0.6,0,0.7-0.5,0.7-1.3v-0.5H119.1z"/>
			<path class="st5" d="M119.4,164.4h1v-2.3h1.9v2.3h1.2v1.7h-1.2v5.6c0,0.4,0.1,0.8,0.6,0.8c0.2,0,0.4,0,0.5-0.1v1.4
				c-0.3,0.2-0.8,0.2-1.2,0.2c-1.2,0-1.9-0.4-1.9-2V166h-1V164.4z"/>
		</g>
	</g>
</g>
<g id="Layer_9">
	<rect x="300" y="280" class="st6" width="123" height="36"/>
</g>
<g id="Layer_10">
	<g>
		<g>
			<path class="st7" d="M328.3,290.6h3.4c2.8,0,3.9,1.1,3.9,3.2v0.5c0,2-0.8,2.6-1.5,2.8c0.7,0.3,1.8,0.8,1.8,2.8v1.1
				c0,2.4-1.2,3.6-4,3.6h-3.6V290.6z M331.4,296.3c1.4,0,1.8-0.4,1.8-1.8V294c0-1.2-0.5-1.6-1.7-1.6h-0.8v3.9H331.4z M330.8,302.9
				h0.8c1.5,0,1.8-0.6,1.8-1.9V300c0-1.4-0.4-2-2-2h-0.7V302.9z"/>
			<path class="st7" d="M340.1,290.6v10.7c0,1,0.4,1.6,1.4,1.6c1,0,1.3-0.7,1.3-1.6v-10.7h2.5v10.6c0,2.2-1.2,3.6-3.9,3.6
				c-2.6,0-3.8-1.2-3.8-3.6v-10.7H340.1z"/>
			<path class="st7" d="M349.2,304.7v-5c0-0.2,0-0.3-0.1-0.5l-3-8.6h2.8c0.7,2.3,1.4,4.9,1.7,6.4h0c0.3-1.7,1.1-4.2,1.7-6.4h2.7
				l-3.1,8.8c0,0.1,0,0.2,0,0.5v4.7H349.2z"/>
			<path class="st7" d="M359.1,304.7v-14.1h2.9c0.7,2,2.6,8.9,2.8,9.7h0c-0.1-1.7-0.1-3.7-0.1-6v-3.6h2.3v14.1h-2.8
				c-0.5-1.7-2.7-9.4-2.9-10h0c0.1,1.7,0.1,3.6,0.1,6.1v3.8H359.1z"/>
			<path class="st7" d="M376.8,294.3v6.6c0,2.7-1.3,4-4.1,4c-2.7,0-3.9-1.3-3.9-3.9v-6.6c0-2.7,1.6-3.9,4-3.9
				C375.4,290.4,376.8,291.6,376.8,294.3z M371.4,294.1v7.1c0,1.2,0.5,1.7,1.4,1.7c1,0,1.4-0.5,1.4-1.7v-7.1c0-1.1-0.4-1.7-1.4-1.7
				C371.9,292.4,371.4,292.9,371.4,294.1z"/>
			<path class="st7" d="M380.1,304.7l-2.2-14.1h2.7c0.4,3,0.9,7.7,1,10.4h0c0.4-3,1.1-7.3,1.5-10.4h2.5c0.5,3.2,1.2,7.2,1.5,10.3
				h0.1c0.2-2.7,0.7-7.1,1-10.3h2.6l-2.4,14.1h-2.6c-0.5-3.2-1.1-6.9-1.5-9.8h0c-0.4,3-1.1,6.8-1.6,9.8H380.1z"/>
		</g>
	</g>
</g>
</svg>
