<?xml version="1.0" encoding="utf-8"?>
<!-- Generator: Adobe Illustrator 22.0.1, SVG Export Plug-In . SVG Version: 6.00 Build 0)  -->
<svg version="1.1" xmlns="http://www.w3.org/2000/svg" xmlns:xlink="http://www.w3.org/1999/xlink" x="0px" y="0px"
	 viewBox="0 0 512 512" style="enable-background:new 0 0 512 512;" xml:space="preserve">
<g id="Layer_1">
	<rect class="st0" width="512" height="512"/>
</g>
<g id="Layer_4">
	<polygon class="st1" points="247,314.9 383.3,229.5 548.8,488.8 552.1,526.8 391.2,531 	"/>
</g>
<g id="Layer_2">
	<path class="st2" d="M318.6,196.7c-44.7,0-80.9,36.2-80.9,80.9s36.2,80.9,80.9,80.9s80.9-36.2,80.9-80.9S363.3,196.7,318.6,196.7z
		 M318.6,353.7c-42,0-76-34-76-76s34-76,76-76s76,34,76,76S360.6,353.7,318.6,353.7z"/>
	<path class="st3" d="M399.3,277.7c0,44.5-36.1,80.7-80.7,80.7c-27.9,0-52.4-14.1-66.9-35.6l3.7-2.2c13.6,20.2,36.7,33.4,62.8,33.4
		c41.8,0,75.8-33.9,75.8-75.8c0-12.5-3-24.3-8.4-34.7l4.7-2.8C396.1,251.8,399.3,264.3,399.3,277.7z"/>
	<path class="st3" d="M385.6,243.5l-130.2,77c0,0,0,0-0.1-0.1L385.6,243.5C385.6,243.4,385.6,243.5,385.6,243.5z"/>
</g>
<g id="Layer_3">
	<circle class="st4" cx="318.1" cy="277.7" r="76"/>
</g>
<g id="Layer_5">
	<path class="st5" d="M175.3,363.9H75.2c-3.9,0-7.2-3.2-7.2-7.2v-11.7c0-3.9,3.2-7.2,7.2-7.2h100.2c3.9,0,7.2,3.2,7.2,7.2v11.7
		C182.5,360.6,179.3,363.9,175.3,363.9z"/>
</g>
<g id="Layer_6">
	<text transform="matrix(0.9928 0 0 1 90.8398 355.3252)" class="st6 st7">SHOP NOW</text>
</g>
<g id="Layer_7">
	<text transform="matrix(1 0 0 1 32.1914 275.7148)" class="st4 st8 st9">SALE</text>
</g>
<g id="Layer_8">
	<text transform="matrix(1 0 0 1 42.4644 303.0742)"><tspan x="0" y="0" class="st10 st6 st11">UPTO</tspan><tspan x="54.4" y="0" class="st8 st11">  </tspan><tspan x="63.7" y="0" class="st12 st8 st11">50% OFF</tspan></text>
	<text transform="matrix(1 0 0 1 67.9805 203.2598)" class="st13 st6 st14">FOOTWEAR FASHION</text>
</g>
<g id="Layer_9">
	<text transform="matrix(1 0 0 1 255.3395 286.1974)" class="st6 st15">IMAGE</text>
</g>
<g id="Layer_10">
</g>
<g id="Layer_11">
</g>
</svg>
